<svg xmlns="http://www.w3.org/2000/svg" viewBox="0 0 1368.7 166.77"><defs><style>.cls-3,.cls-4,.cls-5{fill-rule:evenodd}.cls-4{fill:#04283e}.cls-5{fill:#26cae5}</style></defs><g style="isolation:isolate"><g id="Слой_2" data-name="Слой 2"><g id="Слой_1-2" data-name="Слой 1"><path class="cls-4" d="M451.45 83.27q0 47 32.67 47c11.08 0 19.33-3.82 24.66-11.42s8.05-19.44 8.05-35.55-2.72-28.13-8.16-35.85-13.54-11.57-24.32-11.57q-32.89 0-32.9 47.42zm111.44 0q0 40.89-20 62.17t-58.73 21.29q-38.12 0-58.46-21.41t-20.35-62.2q0-40.44 20.23-61.79T484.35 0Q523 0 543 21.18t19.89 62.13zM308.4 69.66h69.88V157q-28.47 9.75-62.59 9.76-37.44 0-57.85-21.71t-20.42-61.93q0-39.26 22.34-61.07T322.46.23a138.19 138.19 0 0 1 28.86 2.87A123.22 123.22 0 0 1 375 10.4l-13.89 34.34a85.14 85.14 0 0 0-38.42-8.66q-19.17 0-29.61 12.48t-10.47 35.62q0 22.68 9.45 34.6t27.3 11.91a80.15 80.15 0 0 0 17.93-1.89v-25.34H308.4z"/><path class="cls-5" d="M1303.77 98.25l-7-26.63q-2.44-8.85-5.94-22.91c-2.31-9.42-3.86-16.11-4.58-20.2-.68 3.79-2 10-3.93 18.65s-6.32 25.67-13 51.09zm17.06 66.25l-7.94-30.41h-52.64l-8.17 30.41H1204l52.81-162.68h58.38l53.51 162.68zM1151.6 81.68q0-22.29-8.81-33.05T1116 37.89h-12.74v90.76h9.74q20 0 29.27-11.57t9.3-35.4zm45.4-1.62q0 40.55-22.31 62.5t-62.77 21.94h-52.42V2.5h56.09q39 0 60.2 19.93T1197 80.06zM1025.53 2.5V100q0 31.83-18 49.28t-51.92 17.47q-33.14 0-50.9-16.94T886.93 101V2.5h44v95.06c0 11.42 2.12 19.74 6.43 24.93s10.59 7.75 18.95 7.75c9 0 15.43-2.57 19.47-7.72s6-13.54 6-25.18V2.5zM805.37 98.25l-7-26.63c-1.63-5.9-3.59-13.53-5.94-22.91s-3.86-16.11-4.57-20.2c-.69 3.79-2 10-3.94 18.65s-6.31 25.67-13 51.09zm17 66.25l-7.94-30.41h-52.59l-8.17 30.41h-48.1L758.4 1.82h58.39L870.3 164.5zM698 115.34a47.76 47.76 0 0 1-7.64 26.77q-7.67 11.69-22 18.19t-33.77 6.47a137.11 137.11 0 0 1-27.15-2.27 100.51 100.51 0 0 1-22.8-7.94v-39a131.86 131.86 0 0 0 26 10 97.33 97.33 0 0 0 24.8 3.59c6.51 0 11.27-1.13 14.3-3.36a10.35 10.35 0 0 0 4.54-8.66 9.37 9.37 0 0 0-1.86-5.82 21 21 0 0 0-5.86-5q-4-2.55-21.55-10.44-15.84-7.2-23.75-14a42.9 42.9 0 0 1-11.72-15.51q-3.81-8.73-3.82-20.72 0-22.35 16.26-34.91T646.73.23q25.13 0 51.27 11.61l-13.38 33.73q-22.74-10.38-39.21-10.4c-5.67 0-9.84 1-12.41 3a9.06 9.06 0 0 0-3.89 7.44c0 3.18 1.66 6 4.95 8.55s12.18 7.07 26.74 13.73q20.93 9.4 29.08 20.23c5.4 7.25 8.12 16.29 8.12 27.22z"/><path class="cls-4" d="M196.94 36c-4.18-5.73-7.85-2.29-10.61.5l-8.67 8.63c-.07.08-.2.18-.28.26-.5.51-.11-.17-.8.89a7 7 0 0 0 .09 7.26 6.28 6.28 0 0 0 7.56 1.54l11.29-11c2.12-2.15 4-4.48 1.42-8zm.18 71.79a66.52 66.52 0 0 0-5-5.62l-5.59-5.55c-6.84-6.31-13.67.63-10.07 6.72l10.79 11c6.51 6.74 13.54-1.63 9.82-6.53zm15.2-35.68c-2.94-4.55-8.71-3.15-16.19-3.18-3.09 0-5.72-.39-7.89 1.26a6.12 6.12 0 0 0-1.71 7.51c2.26 4.82 11.05 3.21 16.31 3.22 3 0 6 .24 8.06-1.45 1.74-1.43 3-4.88 1.42-7.36zm-62.14 45.07v7.25c0 9.69 12.17 9.7 12.18 0 0-7.41 1.8-22.17-7.68-19.69-5.3 1.4-4.49 7.22-4.49 12.44zm0-90.94V38c0 9.69 12.2 10.64 12.17-.56 0-5.45 1.28-14.18-1.81-17.38-2.15-2.24-10.37-3.94-10.37 6.22zM23.67 54.16c7.75-7.3 15.53-15.76 22.88-23C54.29 23.59 61.56 16 69.34 8.3 73 4.71 77.23-.86 84.79 1.45c8.58 2.62 15.15 22.91.55 39A10.35 10.35 0 0 0 82.6 49c.73 6.74 6.48 9.32 13.1 9.31 13 0 61.6-1.22 67.32 1.58A17.18 17.18 0 0 1 165.66 89c-5.3 4.14-12.12 3.27-19.73 3.26s-15.23-.07-22.82 0c1.82 9.82 4.14 13.2-7.23 22.7.54 2.1 1.7 3.17 2.18 6.15 1.36 8.47-2 13.94-8.47 18.39.87 3.91 3.24 5.52 2.57 11.65-.39 3.52-2.31 7.8-5 9.35-3.41 7-17.32 5.51-25.37 5.49-20.79.01-34.29 1.92-52.35-9.27A62.41 62.41 0 0 1 9.29 70.93c4.36-7.24 8.4-10.6 14.38-16.77zm77.61 99.55c-4.41 3.39-3.94 2.93-10.58 2.9-21.8-.08-39.89 2.82-57.08-8.53A51.26 51.26 0 0 1 20 135.45a53 53 0 0 1 .1-63.69 41.47 41.47 0 0 1 3.09-3.63c1.19-1.3 2.28-2.37 3.3-3.42l3-3.32c1.51-.72 33.15-32.86 38.75-38.58 2.37-2.43 10.9-11.81 13.53-12.43 4 4.11 2.87 14.55 0 19.3-2.53 4.24-8.28 8-8.8 16.66a20.2 20.2 0 0 0 8.15 17.37c6.59 4.91 12.76 4 21.81 4 16.92 0 33.88-.11 50.79 0 9.39 0 12.35 8.37 6.72 13.35-3.58 3.17-18.51 1.85-24 1.84-3.61 0-35.48-.36-37.49.29a4.67 4.67 0 0 0-1.68 7.92c4 3.5 17.25-2.78 17.76 8.29.54 11.42-13.08 7-17.88 8.26-3.89 1-4.36 5.64-2 8 2.08 2.1 7.4.66 10.38 2.48 6.29 3.83 3.68 13.52-4.22 14-3.18.19-9.73-.81-12.13.91-2.56 1.85-2.4 6.87 1.18 8.13 4 1.43 6.51-1.13 10.08 2.64 3 3.1 2.68 5.71.84 9.89z"/></g></g></g></svg>